<svg xmlns="http://www.w3.org/2000/svg" viewBox="0 0 500 500"><g id="freepik--background-simple--inject-145"><path d="M177.14,425.7c104.16,21.78,209.14-63.36,258-146.18,32.46-55,45.93-120.17,28.06-173.84C450.09,66.35,416.4,27.77,365.63,25c-56.58-3.13-102.84,51.67-161,49.21S77.59,94.17,43.76,137,2.15,259,29.69,321.22a177.51,177.51,0,0,0,80.81,85.32c20.28,10.49,42.3,13.85,65.37,18.89Z" style="fill:#516C4E"></path><path d="M177.14,425.7c104.16,21.78,209.14-63.36,258-146.18,32.46-55,45.93-120.17,28.06-173.84C450.09,66.35,416.4,27.77,365.63,25c-56.58-3.13-102.84,51.67-161,49.21S77.59,94.17,43.76,137,2.15,259,29.69,321.22a177.51,177.51,0,0,0,80.81,85.32c20.28,10.49,42.3,13.85,65.37,18.89Z" style="fill:#fff;opacity:0.8"></path></g><g id="freepik--Character--inject-145"><ellipse cx="251.1" cy="460.9" rx="194.96" ry="8.7" style="fill:#263238;stroke:#263238;stroke-linecap:round;stroke-linejoin:round"></ellipse><path d="M282.86,171.3s6.37,10.06,4.36,20.45-4.69,14.75-7.38,19.78.67,12.06-2.34,15.08-9.72,1.34-9.72,1.34-4,3.69-10.73,9.72S251,246.05,244,241s-15.75-16.76-15.75-16.76-2.69-18.43,17.76-36.87S282.86,171.3,282.86,171.3Z" style="fill:#bababa;stroke:#263238;stroke-miterlimit:10"></path><path d="M244.62,188.68l43-1.6a34.35,34.35,0,0,0-4.74-15.78S266.44,169,246,187.39C245.52,187.82,245.07,188.25,244.62,188.68Z" style="fill:#fff;stroke:#263238;stroke-miterlimit:10"></path><path d="M286.19,178.86a35.42,35.42,0,0,0-3.33-7.56S266.44,169,246,187.39c-.47.43-.92.86-1.37,1.29l17.05-.64C270.48,183.18,280.62,180.24,286.19,178.86Z" style="fill:#263238;stroke:#263238;stroke-linecap:round;stroke-linejoin:round"></path><path d="M273.48,209.85l-1.35,4s-5,.67-6-3" style="fill:none;stroke:#263238;stroke-miterlimit:10"></path><path d="M278.17,203.48s-2-6.37-10.73-2" style="fill:none;stroke:#263238;stroke-linecap:round;stroke-linejoin:round;stroke-width:2px"></path><path d="M217.5,284.26s7.37,64,9.38,79.44,3,22.79,3,22.79l-18.77-3,.34-106.93Z" style="fill:#263238;stroke:#263238;stroke-linecap:round;stroke-linejoin:round"></path><path d="M213.14,376.1s33.86,11.4,47.93,21.12,31.18,19.78,33.19,24.47-.34,14.08-1,18.1-2.34,2.35-1.34,2.35,30.84,10.39,30.5,15.08-3.68,7.37-39.21,8.38-97.88-7-93.19-3.35,21.79,2.34,18.44,5.7-44.25-.68-74.75-1-56.31-6.37-52.62-9.05,20.78-10.73,27.82-12.74,13.74-7,15.75-11.06,5-4.69,5-4.69-9.05-17.43-7-27.49,14.41-25.47,26.15-29.83S213.14,376.1,213.14,376.1Z" style="fill:#516C4E;stroke:#263238;stroke-linecap:round;stroke-linejoin:round"></path><path d="M142.89,440.19c6.86,4.48,16.41,9,27.35,9.32,22.12.67,84.46.67,93.52,1.68" style="fill:none;stroke:#263238;stroke-linecap:round;stroke-linejoin:round"></path><path d="M131.69,431.07a53.68,53.68,0,0,0,5.34,4.85" style="fill:none;stroke:#263238;stroke-linecap:round;stroke-linejoin:round"></path><path d="M187.14,445.32c15.09.35,40,.21,57.51-3.52,26.81-5.7,35.19-16.76,35.19-16.76" style="fill:none;stroke:#263238;stroke-linecap:round;stroke-linejoin:round"></path><path d="M173.92,444.82s2.7.16,7.17.32" style="fill:none;stroke:#263238;stroke-linecap:round;stroke-linejoin:round"></path><path d="M244.65,441.8s21.79,1.34,37.88-5.36" style="fill:none;stroke:#263238;stroke-linecap:round;stroke-linejoin:round"></path><path d="M287.49,451.2c2.81-2.48,4.09-5.17,4.09-7.05" style="fill:none;stroke:#263238;stroke-linecap:round;stroke-linejoin:round"></path><path d="M133.32,454.49a100.72,100.72,0,0,0,34.91,5.08c27.48-1,68-5,91.17-2.35,8.66,1,15.35.13,20.33-1.63" style="fill:none;stroke:#263238;stroke-linecap:round;stroke-linejoin:round"></path><path d="M120.63,449.17a61.53,61.53,0,0,0,6.41,3" style="fill:none;stroke:#263238;stroke-linecap:round;stroke-linejoin:round"></path><path d="M111.58,447.5s-16.42,3.35-9,6.7S130.35,470,180,463.25" style="fill:none;stroke:#263238;stroke-linecap:round;stroke-linejoin:round"></path><path d="M160.85,289.29s-4.36,28.16-8.38,42.57-22.79,43.91-28.82,56.31-5.37,14.41-5.37,14.41,10.06,10.06,40.23,12.41,58.32-5,58.32-5,1-47.26.33-71.73-1.34-56-1.34-56-12.4-17.09-27.15-13.41S160.85,289.29,160.85,289.29Z" style="fill:#263238;stroke:#263238;stroke-linecap:round;stroke-linejoin:round"></path><path d="M252.13,298.2a79.63,79.63,0,0,1,19.62-4.71c9.69-.78,17.55-2.35,19.12-6.81s4.19-9.69,3.41-17-4.45-7.34-6-4.46-6,11.27-11,13.89-12.31-.79-12.31-.79,7.07-2.88,7.07-8.91-4.45-1.57-6.81.79-9.95,9.43-11.26,10.22-5.24,4.71-6.29,7.07-2.62,6-2.62,6Z" style="fill:#bababa;stroke:#263238;stroke-linecap:round;stroke-miterlimit:10"></path><path d="M294,268.08s-1-.52-2.62,4.72S288,284.32,288,284.32L280.66,288" style="fill:none;stroke:#263238;stroke-linecap:round;stroke-miterlimit:10"></path><path d="M244,284.5s3-7.59,3.9-10.4,6.06-5.2,7.8-7.15,5.19-8.45,6.49-9.31,6.07,1.51,3,6.06-4.12,6.28-4.77,8.23-.22,2.6,1.3,2.6,11.05-1.73,13.43-3.25,7.15-7.15,8.45-9.75,3.68-5.84,5-4.33a3.89,3.89,0,0,1,.87,3.25,6.23,6.23,0,0,1,1.73,4.55c0,3-1.08,5.42-1.08,6.72s-2.6,10.39-2.82,11-6.93,5-12.56,7.37-14.3,2.16-16.46,2.81-5.64,3.69-5.64,3.69L242,286.88S243.77,283.41,244,284.5Z" style="fill:#bababa;stroke:#263238;stroke-linecap:round;stroke-miterlimit:10"></path><path d="M289.48,260.45s-2.82,7.8-5,12.35a15.28,15.28,0,0,1-5,6.28" style="fill:none;stroke:#263238;stroke-linecap:round;stroke-linejoin:round"></path><path d="M290.13,271.72s-3.9,6.93-5.42,8.44a13,13,0,0,1-3.46,2.39" style="fill:none;stroke:#263238;stroke-linecap:round;stroke-linejoin:round"></path><path d="M171.58,293S183.31,334.21,189,344.6s7,14.07,9.38,13.74,54-55.31,54.64-56.65a59.5,59.5,0,0,1,4.36-5.7L243,282.59S228.9,297.67,223.87,302s-10.73,9.05-10.73,9.05-8.38-25.14-9.38-26.82-7.38-10.39-12.74-10.39" style="fill:#263238;stroke:#263238;stroke-linecap:round;stroke-linejoin:round"></path><path d="M174.63,299.71s17.36,55.61,24,54.94,23.07-18,23.07-18" style="fill:none;stroke:#969696;stroke-linecap:round;stroke-linejoin:round"></path><line x1="209.8" y1="314.41" x2="203.76" y2="284.26" style="fill:none;stroke:#969696;stroke-linecap:round;stroke-linejoin:round"></line><path d="M225.88,239s9.38-2,9.72-4.69-.67-8.72,5-16.42,9.72-16.09,15.08-23.13S290.57,171,290.57,171s-16.42-17.77-30.17-23.46-36.53-5.7-40.22-5.7-12.74.67-18.1,10.05-14.41,41.9-16.09,52.29-16.76,34.19-23.13,50.62-12.73,41.56-12.73,41.56,15.08-2.35,26.81-10.73,13.41-12.4,23.13-7.37,25.81,17.09,25.81,17.09,3-7.71,2.68-20.11-4.69-11.39-1.34-15.75,5.7-7,5-11.06S225.88,239,225.88,239Z" style="fill:#516C4E;stroke:#263238;stroke-linecap:round;stroke-linejoin:round"></path><path d="M233.79,163.29a32.79,32.79,0,0,1,1.47-4" style="fill:none;stroke:#263238;stroke-linecap:round;stroke-linejoin:round"></path><path d="M232.25,232.31s-4-37.52-.19-61.17" style="fill:none;stroke:#263238;stroke-linecap:round;stroke-linejoin:round"></path><path d="M220.76,249.36c.54,1.29,1.13,2.54,1.77,3.73" style="fill:none;stroke:#263238;stroke-linecap:round;stroke-linejoin:round"></path><path d="M222.19,160.58s-12.77,50.54-3.57,82.63" style="fill:none;stroke:#263238;stroke-linecap:round;stroke-linejoin:round"></path><path d="M223.87,238s-4.69-12.07-4.36-31.51" style="fill:none;stroke:#263238;stroke-linecap:round;stroke-linejoin:round"></path><path d="M197.5,243.18a58.5,58.5,0,0,0,.89,6.56" style="fill:none;stroke:#263238;stroke-linecap:round;stroke-linejoin:round"></path><path d="M211.77,179.05c-5.79,13.34-14.2,36.23-14.49,57.19" style="fill:none;stroke:#263238;stroke-linecap:round;stroke-linejoin:round"></path><path d="M217.16,167.62s-1,1.82-2.47,5" style="fill:none;stroke:#263238;stroke-linecap:round;stroke-linejoin:round"></path><path d="M162,274.38c1.24-3.65,2.93-8.32,5.21-14.25,8.38-21.79,21.45-32.51,21.45-32.51s3.69-2.69,4-9.05,1.67-23.13,6-33.19" style="fill:none;stroke:#263238;stroke-linecap:round;stroke-linejoin:round"></path><path d="M158.51,286.61a30,30,0,0,1,1.12-4.76" style="fill:none;stroke:#263238;stroke-linecap:round;stroke-linejoin:round"></path></g><g id="freepik--Book--inject-145"><polygon points="393.55 414.56 396 391.1 346.85 391.1 342.21 414.56 393.55 414.56" style="fill:#263238;stroke:#263238;stroke-linecap:round;stroke-linejoin:round"></polygon><path d="M395.43,391.93H348.24s-2.94,7.82-2.94,11.73S347,413.93,347,413.93h46.54Z" style="fill:#fff;stroke:#263238;stroke-linecap:round;stroke-linejoin:round"></path><path d="M395.43,391.93s-1.22,3.17-2.69,7.82S393,413,393,413Z" style="fill:#fff;stroke:#263238;stroke-linecap:round;stroke-linejoin:round"></path><path d="M393.27,414.57l8.88,46h-16l-3.86-15.46a11.7,11.7,0,0,0-11.25-9.39c-5.37,0-9,4.2-8.17,9.39l3.86,15.46h-16l-8.87-46Z" style="fill:#263238;stroke:#263238;stroke-linecap:round;stroke-linejoin:round"></path><path d="M342.21,414.57l-8.88,46h16l3.86-15.46a11.7,11.7,0,0,1,11.25-9.39c5.37,0,9,4.2,8.17,9.39l-3.85,15.46h15.95l8.88-46Z" style="fill:#fff;stroke:#263238;stroke-linecap:round;stroke-linejoin:round"></path><path d="M392.5,409.78S392,402.2,390.78,399a9.6,9.6,0,0,0-3.91-4.65l-1.71.49,6.36,16.87Z" style="fill:#fff;stroke:#263238;stroke-linecap:round;stroke-linejoin:round"></path><polygon points="342.21 414.56 335.38 393.45 386.99 393.45 393.55 414.56 342.21 414.56" style="fill:#fff;stroke:#263238;stroke-linecap:round;stroke-linejoin:round"></polygon></g></svg>